<svg xmlns="http://www.w3.org/2000/svg" width="682.667" height="682.667" version="1.0" viewBox="0 0 512 512">
  <path d="M2.9 25.9 0 28.8v454.4l2.9 2.9 2.9 2.9h500.4l2.9-2.9 2.9-2.9V28.8l-2.9-2.9-2.9-2.9H5.8l-2.9 2.9zM165 62v22H17V40h148v22zm165 0v22H182V40h148v22zm165 0v22H347V40h148v22zM165 286.5V472H17V101h148v185.5zm165 0V472H182V101h148v185.5zm165 0V472H347V101h148v185.5z"/>
  <path d="M38.5 56.5c-3.2 3.1-3.2 7.5-.1 11.2l2.4 2.8h100.4l2.4-2.8c2.9-3.4 3.1-7.6.3-11.1l-2-2.6h-101l-2.4 2.5zM203.5 56.5c-3.2 3.1-3.2 7.5-.1 11.2l2.4 2.8h100.4l2.4-2.8c3.1-3.7 3.1-8.1-.1-11.2l-2.4-2.5H205.9l-2.4 2.5zM368.1 56.6c-2.8 3.5-2.6 7.7.3 11.1l2.4 2.8h100.4l2.5-2.9c2-2.4 2.4-3.6 1.9-6.5-1.1-7.4 1.1-7.1-55.1-7.1h-50.4l-2 2.6zM41.2 131.3c-2.2 2.3-2.2 2.4-2.2 49.4 0 25.9.3 47.9.6 48.8 1.7 4.3 3.9 4.5 51.3 4.5 26.2 0 46-.4 47.5-1 5.5-2.1 5.6-3 5.6-51.4 0-28.3-.4-45.5-1-47.2-2.1-5.5-.8-5.3-52.1-5.4H43.3l-2.1 2.3zm85.8 50.2V217H56v-71h71v35.5z"/>
  <path d="M102.5 163.2c-1.1.6-5.6 4.6-10 9l-8.1 7.9-2.4-2.6c-1.7-1.8-3.4-2.5-6.2-2.5-5 0-7.8 2.8-7.8 7.8 0 3.3.8 4.5 6.8 10.5 10.2 10.1 10.5 10 27-6.6 14.7-14.9 15.5-16.5 10.3-21.8-3.1-3-6.2-3.6-9.6-1.7zM41.5 305.5l-2.5 2.4v95.2l2.5 2.4 2.4 2.5h94l2.8-2.4 2.8-2.4v-95.4l-2.8-2.4-2.8-2.4h-94l-2.4 2.5zm85.5 50V391H56v-71h71v35.5z"/>
  <path d="M104 336.7c-.8.3-5.4 4.4-10.2 9.1l-8.8 8.6-2.8-2.7c-5.8-5.6-14.2-2.3-14.2 5.7 0 3.1.8 4.6 5.3 9.3 6.2 6.7 10.4 8.8 14.4 7.2 3.3-1.2 23.9-21.2 25.9-25.2 1.8-3.3 1.1-7.7-1.4-10-2-1.8-6.1-2.8-8.2-2zM241 236c-46.6 12.7-47 12.8-47 19.1 0 1.7 5.2 22.4 11.5 46.2 9.9 36.9 12 43.5 14.1 45.4 1.4 1.3 3.3 2.3 4.3 2.3 1.6 0 80.7-20.8 87.8-23.1 4-1.3 6.3-4.3 6.3-8.2 0-1.6-5.2-22.3-11.5-46-12.5-46.6-13-47.9-19.3-47.6-1.5.1-22.3 5.4-46.2 11.9zm49.4 41.3c4.9 18.5 8.7 33.9 8.4 34.2-1.2 1.2-67.2 18.5-67.9 17.7-.7-.8-17.9-65-17.9-66.9 0-.7 1.2-1.6 2.8-1.9 1.5-.4 16.4-4.4 33.2-9 16.8-4.5 30.9-8.1 31.5-8 .5.1 5 15.4 9.9 33.9z"/>
  <path d="M248 265c-18.8 5.2-21 6.5-21 12.4.1 3.8 1.8 6.2 5.4 7.6 2.3.8 6 .1 21.3-4 10.2-2.8 19.4-5.5 20.5-6.1 4.3-2.3 4.6-10.5.5-13.4-3.3-2.3-7.8-1.7-26.7 3.5zM258.6 292c-9.8 2.6-18.9 5.3-20.3 5.9-4.7 2.2-5.4 10.5-1 13.6 3.3 2.3 6.6 1.9 25.6-3.2 19.4-5.2 22.1-6.7 22.1-12.6 0-3.5-2.8-7-6.5-8-1.1-.3-10 1.6-19.9 4.3zM371.3 178.4l-2.8 2.4v95.4l2.8 2.4 2.9 2.5 47.5-.3 47.5-.3 1.9-2.4c1.8-2.2 1.9-4.5 1.9-49.8v-47.4l-2.5-2.4-2.4-2.5h-94l-2.8 2.4zm84.7 50.1V264h-71v-71h71v35.5z"/>
  <path d="M432.5 210.4c-1.6.8-6.3 4.8-10.4 8.9l-7.4 7.6-2.9-2.5c-4.9-4-10.8-3-13.7 2.4-2.1 3.9-.4 7.6 6.4 14.1 9.7 9.4 10.8 9.1 26.8-6.7 11-10.9 12.7-13.1 12.7-15.9 0-4.5-.9-6.2-4.1-7.8-3.4-1.8-3.6-1.8-7.4-.1z"/>
</svg>
